<svg width="21px" height="20px" viewBox="0 0 21 20" version="1.1" xmlns="http://www.w3.org/2000/svg"
	xmlns:xlink="http://www.w3.org/1999/xlink">
	<g id="Page-1" stroke="none" stroke-width="1" fill="none" fill-rule="evenodd">
		<g id="HOME" transform="translate(-1517.000000, -3148.000000)" fill="#FFFFFF">
			<path
				d="M1532.81842,3154.18552 C1534.37686,3154.18552 1535.63038,3154.70106 1536.57799,3155.73198 C1537.52594,3156.76256 1537.99966,3158.2724 1538,3160.26167 L1538,3160.26167 L1538,3167.99967 L1533.50191,3167.99967 L1533.50191,3160.77905 C1533.50191,3159.82539 1533.31732,3159.07824 1532.94831,3158.53795 C1532.57913,3157.99749 1532.00254,3157.72726 1531.21871,3157.72726 C1530.64447,3157.72726 1530.1637,3157.88395 1529.77623,3158.19749 C1529.3886,3158.51069 1529.09963,3158.89881 1528.90799,3159.36218 C1528.80764,3159.63492 1528.75764,3160.00264 1528.75764,3160.46585 L1528.75764,3160.46585 L1528.75764,3168 L1524.25971,3168 C1524.27477,3165.01551 1524.28358,3162.49623 1524.28622,3160.44188 L1524.28697,3159.5899 L1524.28697,3159.5899 L1524.28706,3159.18526 C1524.28706,3158.97074 1524.28702,3158.76446 1524.28694,3158.56642 L1524.28629,3157.73083 C1524.28619,3157.64417 1524.28607,3157.55956 1524.28595,3157.47702 L1524.28508,3157.00646 C1524.28293,3156.04047 1524.27902,3155.42253 1524.2733,3155.15256 L1524.2733,3155.15256 L1524.25954,3154.49855 L1528.75764,3154.49855 L1528.75764,3156.41842 C1528.93132,3156.14568 1529.10903,3155.90472 1529.29093,3155.6977 C1529.48223,3155.47981 1529.73982,3155.24369 1530.06335,3154.98935 C1530.38705,3154.735 1530.78342,3154.53752 1531.25277,3154.39672 C1531.7223,3154.25592 1532.24418,3154.18552 1532.81842,3154.18552 Z M1521.77531,3154.48835 L1521.77531,3167.98963 L1517.26363,3167.98963 L1517.26363,3154.48835 L1521.77531,3154.48835 Z M1519.54296,3148 C1520.29944,3148 1520.90573,3148.22023 1521.36133,3148.66086 C1521.81693,3149.10132 1522.04951,3149.6575 1522.05857,3150.32973 C1522.06763,3150.99276 1521.83757,3151.54676 1521.36821,3151.99174 C1520.89885,3152.43688 1520.28132,3152.65929 1519.51561,3152.65929 L1519.51561,3152.65929 L1519.48826,3152.65929 C1518.74084,3152.65929 1518.13925,3152.43672 1517.68365,3151.99174 C1517.22788,3151.54676 1517,3150.99259 1517,3150.32973 C1517,3149.6575 1517.2346,3149.10132 1517.70412,3148.66086 C1518.17365,3148.2204 1518.78648,3148 1519.54296,3148 Z"
				id="Combined-Shape"></path>
		</g>
	</g>
</svg>