<svg width="9px" height="20px" viewBox="0 0 9 20" version="1.1" xmlns="http://www.w3.org/2000/svg"
	xmlns:xlink="http://www.w3.org/1999/xlink">
	<g id="Page-1" stroke="none" stroke-width="1" fill="none" fill-rule="evenodd">
		<g id="HOME" transform="translate(-1480.000000, -3148.000000)" fill="#FFFFFF">
			<path
				d="M1485.9884,3154.55331 L1485.9884,3152.83004 C1485.9884,3152.57131 1485.9999,3152.37096 1486.02335,3152.22945 C1486.04665,3152.08765 1486.09958,3151.94822 1486.18171,3151.81059 C1486.2637,3151.6731 1486.3966,3151.57807 1486.58013,3151.52549 C1486.76381,3151.47276 1487.00804,3151.44654 1487.31282,3151.44654 L1488.9767,3151.44654 L1488.9767,3148 L1486.31663,3148 C1484.77731,3148 1483.67195,3148.3782 1483.0001,3149.1346 C1482.32825,3149.89114 1481.99239,3151.00548 1481.99239,3152.47806 L1481.99239,3154.55331 L1480,3154.55331 L1480,3158 L1481.99225,3158 L1481.99225,3168 L1485.9884,3168 L1485.9884,3158 L1488.64847,3158 L1489,3154.55331 L1485.9884,3154.55331 L1485.9884,3154.55331 Z"
				id="Shape"></path>
		</g>
	</g>
</svg>