<svg width="13px" height="20px" viewBox="0 0 13 20" version="1.1" xmlns="http://www.w3.org/2000/svg"
	xmlns:xlink="http://www.w3.org/1999/xlink">
	<g id="Page-1" stroke="none" stroke-width="1" fill="none" fill-rule="evenodd">
		<g id="HOME" transform="translate(-1565.000000, -3148.000000)" fill="#FFFFFF">
			<path
				d="M1576.09569,3149.95313 C1574.8262,3148.65094 1573.2943,3148 1571.5,3148 C1569.7057,3148 1568.1738,3148.6511 1566.90431,3149.95313 C1565.63482,3151.25516 1565,3152.82632 1565,3154.66661 C1565,3155.61289 1565.13962,3156.38976 1565.41885,3156.99739 L1570.05272,3167.07562 C1570.17971,3167.36201 1570.37652,3167.58767 1570.64313,3167.75244 C1570.90974,3167.91737 1571.19537,3168 1571.50016,3168 C1571.80479,3168 1572.09057,3167.91737 1572.35718,3167.75244 C1572.6238,3167.58767 1572.82465,3167.36201 1572.96006,3167.07562 L1577.58099,3156.99739 C1577.86038,3156.38976 1578,3155.61289 1578,3154.66661 C1578.00016,3152.82632 1577.36533,3151.25532 1576.09569,3149.95313 L1576.09569,3149.95313 Z M1573.79777,3157.02344 C1573.1631,3157.67437 1572.39723,3157.99992 1571.5,3157.99992 C1570.60277,3157.99992 1569.8369,3157.67437 1569.20208,3157.02344 C1568.56726,3156.37234 1568.24984,3155.58684 1568.24984,3154.66661 C1568.24984,3153.74655 1568.56726,3152.96088 1569.20208,3152.30995 C1569.8369,3151.65885 1570.60293,3151.33331 1571.5,3151.33331 C1572.39723,3151.33331 1573.1631,3151.65885 1573.79777,3152.30995 C1574.43259,3152.96088 1574.75,3153.74655 1574.75,3154.66661 C1574.75,3155.58668 1574.43259,3156.37218 1573.79777,3157.02344 L1573.79777,3157.02344 Z"
				id="Shape"></path>
		</g>
	</g>
</svg>