<svg width="20px" height="20px" viewBox="0 0 20 20" version="1.1" xmlns="http://www.w3.org/2000/svg"
	xmlns:xlink="http://www.w3.org/1999/xlink">
	<g id="Page-1" stroke="none" stroke-width="1" fill="none" fill-rule="evenodd">
		<g id="HOME" transform="translate(-1433.000000, -3148.000000)" fill="#FFFFFF">
			<path
				d="M1445.07894,3154.51546 C1447.42515,3153.0694 1450.52106,3153.69977 1452.09349,3155.99337 C1453.71085,3158.34141 1453.10644,3161.54984 1450.73916,3163.15405 L1450.73916,3163.15405 L1446.45791,3166.06273 L1443.60374,3168 C1442.52364,3166.43464 1442.92658,3164.29754 1444.50476,3163.22621 L1444.50476,3163.22621 L1446.18369,3162.08828 L1448.79161,3160.31753 C1449.5807,3159.7791 1449.78217,3158.71332 1449.23932,3157.93064 C1448.70207,3157.14241 1447.62196,3156.94258 1446.83287,3157.48102 L1446.83287,3157.48102 L1443.9787,3159.41829 C1442.89859,3157.85293 1443.30154,3155.71583 1444.87972,3154.6445 L1444.861,3154.657 L1444.86643,3154.65283 L1444.87972,3154.6445 Z M1442.40051,3148 C1443.48062,3149.56536 1443.07768,3151.70246 1441.49949,3152.77379 L1441.49949,3152.77379 L1439.82617,3153.91172 L1437.21824,3155.68247 C1436.42915,3156.2209 1436.22768,3157.28668 1436.76493,3158.06936 C1437.30219,3158.85204 1438.38229,3159.05187 1439.17139,3158.51898 L1439.17139,3158.51898 L1442.02556,3156.58171 C1443.10566,3158.14707 1442.70272,3160.28417 1441.12453,3161.3555 C1438.75725,3162.95971 1435.52253,3162.36077 1433.91077,3160.01218 C1432.28781,3157.66414 1432.89222,3154.46126 1435.2595,3152.8515 L1435.2595,3152.8515 L1435.2651,3152.84595 L1439.54635,3149.94282 Z"
				id="Combined-Shape"></path>
		</g>
	</g>
</svg>